<?xml version="1.0" encoding="UTF-8" standalone="no"?>
<!DOCTYPE svg PUBLIC "-//W3C//DTD SVG 1.1//EN"
 "http://www.w3.org/Graphics/SVG/1.1/DTD/svg11.dtd">
<!-- Generated by graphviz version 13.0.0 (20250608.1624)
 -->
<!-- Pages: 1 -->
<svg width="398pt" height="476pt"
 viewBox="0.00 0.00 398.00 476.00" xmlns="http://www.w3.org/2000/svg" xmlns:xlink="http://www.w3.org/1999/xlink">
<g id="graph0" class="graph" transform="scale(1 1) rotate(0) translate(4 472)">
<polygon fill="white" stroke="none" points="-4,4 -4,-472 393.62,-472 393.62,4 -4,4"/>
<!-- G -->
<g id="node1" class="node">
<title>G</title>
<ellipse fill="none" stroke="black" cx="201.97" cy="-450" rx="84.62" ry="18"/>
<text xml:space="preserve" text-anchor="middle" x="201.97" y="-444.95" font-family="Times New Roman,serif" font-size="14.00">generate_sales_data</text>
</g>
<!-- IS -->
<g id="node2" class="node">
<title>IS</title>
<ellipse fill="none" stroke="black" cx="201.97" cy="-378" rx="112.77" ry="18"/>
<text xml:space="preserve" text-anchor="middle" x="201.97" y="-372.95" font-family="Times New Roman,serif" font-size="14.00">IcebergManager.save_sales</text>
</g>
<!-- G&#45;&gt;IS -->
<g id="edge1" class="edge">
<title>G&#45;&gt;IS</title>
<path fill="none" stroke="black" d="M201.97,-431.7C201.97,-424.41 201.97,-415.73 201.97,-407.54"/>
<polygon fill="black" stroke="black" points="205.47,-407.62 201.97,-397.62 198.47,-407.62 205.47,-407.62"/>
</g>
<!-- IR -->
<g id="node3" class="node">
<title>IR</title>
<ellipse fill="none" stroke="black" cx="201.97" cy="-306" rx="112.26" ry="18"/>
<text xml:space="preserve" text-anchor="middle" x="201.97" y="-300.95" font-family="Times New Roman,serif" font-size="14.00">IcebergManager.read_sales</text>
</g>
<!-- IS&#45;&gt;IR -->
<g id="edge2" class="edge">
<title>IS&#45;&gt;IR</title>
<path fill="none" stroke="black" d="M201.97,-359.7C201.97,-352.41 201.97,-343.73 201.97,-335.54"/>
<polygon fill="black" stroke="black" points="205.47,-335.62 201.97,-325.62 198.47,-335.62 205.47,-335.62"/>
</g>
<!-- R -->
<g id="node4" class="node">
<title>R</title>
<ellipse fill="none" stroke="black" cx="99.97" cy="-234" rx="99.97" ry="18"/>
<text xml:space="preserve" text-anchor="middle" x="99.97" y="-228.95" font-family="Times New Roman,serif" font-size="14.00">product_revenue_chunk</text>
</g>
<!-- IR&#45;&gt;R -->
<g id="edge3" class="edge">
<title>IR&#45;&gt;R</title>
<path fill="none" stroke="black" d="M177.28,-288.05C164.25,-279.11 148.07,-268.01 133.88,-258.27"/>
<polygon fill="black" stroke="black" points="135.91,-255.42 125.69,-252.65 131.95,-261.19 135.91,-255.42"/>
</g>
<!-- Xc -->
<g id="node6" class="node">
<title>Xc</title>
<ellipse fill="none" stroke="black" cx="303.97" cy="-234" rx="85.64" ry="18"/>
<text xml:space="preserve" text-anchor="middle" x="303.97" y="-228.95" font-family="Times New Roman,serif" font-size="14.00">xyz_analysis_chunk</text>
</g>
<!-- IR&#45;&gt;Xc -->
<g id="edge5" class="edge">
<title>IR&#45;&gt;Xc</title>
<path fill="none" stroke="black" d="M226.66,-288.05C239.79,-279.05 256.12,-267.84 270.38,-258.05"/>
<polygon fill="black" stroke="black" points="272.35,-260.95 278.61,-252.4 268.39,-255.18 272.35,-260.95"/>
</g>
<!-- A -->
<g id="node5" class="node">
<title>A</title>
<ellipse fill="none" stroke="black" cx="133.97" cy="-162" rx="58" ry="18"/>
<text xml:space="preserve" text-anchor="middle" x="133.97" y="-156.95" font-family="Times New Roman,serif" font-size="14.00">abc_analysis</text>
</g>
<!-- R&#45;&gt;A -->
<g id="edge4" class="edge">
<title>R&#45;&gt;A</title>
<path fill="none" stroke="black" d="M108.38,-215.7C112.08,-208.07 116.53,-198.92 120.67,-190.4"/>
<polygon fill="black" stroke="black" points="123.78,-191.99 125,-181.47 117.49,-188.93 123.78,-191.99"/>
</g>
<!-- Rep -->
<g id="node8" class="node">
<title>Rep</title>
<ellipse fill="none" stroke="black" cx="200.97" cy="-90" rx="68.75" ry="18"/>
<text xml:space="preserve" text-anchor="middle" x="200.97" y="-84.95" font-family="Times New Roman,serif" font-size="14.00">generate_report</text>
</g>
<!-- A&#45;&gt;Rep -->
<g id="edge7" class="edge">
<title>A&#45;&gt;Rep</title>
<path fill="none" stroke="black" d="M149.85,-144.41C157.91,-135.99 167.87,-125.58 176.85,-116.2"/>
<polygon fill="black" stroke="black" points="179.31,-118.69 183.7,-109.05 174.25,-113.85 179.31,-118.69"/>
</g>
<!-- X -->
<g id="node7" class="node">
<title>X</title>
<ellipse fill="none" stroke="black" cx="285.97" cy="-162" rx="58.52" ry="18"/>
<text xml:space="preserve" text-anchor="middle" x="285.97" y="-156.95" font-family="Times New Roman,serif" font-size="14.00">xyz_analysis</text>
</g>
<!-- Xc&#45;&gt;X -->
<g id="edge6" class="edge">
<title>Xc&#45;&gt;X</title>
<path fill="none" stroke="black" d="M299.52,-215.7C297.63,-208.32 295.37,-199.52 293.24,-191.25"/>
<polygon fill="black" stroke="black" points="296.63,-190.38 290.75,-181.57 289.85,-192.13 296.63,-190.38"/>
</g>
<!-- X&#45;&gt;Rep -->
<g id="edge8" class="edge">
<title>X&#45;&gt;Rep</title>
<path fill="none" stroke="black" d="M266.26,-144.76C255.47,-135.88 241.91,-124.71 229.94,-114.85"/>
<polygon fill="black" stroke="black" points="232.28,-112.25 222.34,-108.6 227.83,-117.65 232.28,-112.25"/>
</g>
<!-- P -->
<g id="node9" class="node">
<title>P</title>
<ellipse fill="none" stroke="black" cx="200.97" cy="-18" rx="63.12" ry="18"/>
<text xml:space="preserve" text-anchor="middle" x="200.97" y="-12.95" font-family="Times New Roman,serif" font-size="14.00">PNG &amp; Excel</text>
</g>
<!-- Rep&#45;&gt;P -->
<g id="edge9" class="edge">
<title>Rep&#45;&gt;P</title>
<path fill="none" stroke="black" d="M200.97,-71.7C200.97,-64.41 200.97,-55.73 200.97,-47.54"/>
<polygon fill="black" stroke="black" points="204.47,-47.62 200.97,-37.62 197.47,-47.62 204.47,-47.62"/>
</g>
</g>
</svg>
